# Blender v2.93.0 OBJ File: 'Rope1.blend'
# www.blender.org
mtllib Rope1.mtl
o Rope_NurbsPath
v 0.501607 0.021160 0.316509
v 0.487771 0.034238 0.278713
v 0.479219 -0.000000 0.255354
v 0.487771 -0.034238 0.278713
v 0.501607 -0.021160 0.316509
v 0.409716 0.034238 0.328263
v 0.398051 0.021160 0.289741
v 0.398051 -0.021160 0.289741
v 0.409716 -0.034238 0.328263
v 0.416926 0.000000 0.352070
v 0.247005 0.021160 0.326377
v 0.247005 -0.021160 0.326377
v 0.258631 0.000000 0.390455
v 0.195829 0.034151 0.377035
v 0.116907 0.021160 0.342514
v 0.195848 -0.034151 0.377032
v 0.121117 0.000000 0.407503
v 0.070382 -0.021157 0.345930
v -0.057684 -0.000000 0.404435
v -0.039847 0.034182 0.381526
v -0.047956 0.021054 0.339916
v -0.039805 -0.034182 0.381528
v -0.117882 -0.021156 0.327413
v -0.220616 -0.000002 0.362053
v -0.201132 0.034200 0.343330
v -0.188728 0.020985 0.304258
v -0.212990 -0.021160 0.292200
v -0.201082 -0.034198 0.343348
v -0.320144 -0.000194 0.296315
v -0.302571 0.034318 0.279658
v -0.271817 0.021157 0.252678
v -0.277200 -0.020974 0.247362
v -0.303192 -0.034485 0.279034
v -0.381245 0.000113 0.207605
v -0.357879 0.034200 0.197295
v -0.318365 0.021085 0.186670
v -0.321041 -0.021154 0.180545
v -0.357873 -0.034201 0.197309
v -0.404377 0.000000 0.110732
v -0.380248 0.034201 0.100624
v -0.339453 0.021100 0.103812
v -0.340026 -0.021156 0.096665
v -0.380248 -0.034201 0.100643
v -0.398206 0.000127 -0.003510
v -0.371991 0.034192 -0.004320
v -0.334065 0.021101 0.011284
v -0.332369 -0.021157 0.003656
v -0.344961 0.034238 -0.079409
v -0.364543 -0.034100 -0.038057
v -0.367488 0.000000 -0.089960
v -0.299197 0.021093 -0.082661
v -0.294943 -0.021157 -0.090232
v -0.317721 0.000130 -0.174032
v -0.298826 0.034040 -0.156531
v -0.298829 -0.034040 -0.156529
v -0.231984 0.021257 -0.172026
v -0.225054 -0.021253 -0.178773
v -0.219744 0.000092 -0.267996
v -0.209822 0.034192 -0.244245
v -0.159166 0.021160 -0.228401
v -0.209804 -0.034192 -0.244260
v -0.130599 -0.021227 -0.245751
v -0.130872 0.000000 -0.315398
v -0.094181 0.034042 -0.303656
v -0.077724 0.021059 -0.265756
v -0.095643 -0.034077 -0.303283
v -0.027504 -0.000002 -0.341257
v 0.006336 0.034238 -0.316502
v 0.005637 0.021160 -0.276258
v -0.017706 -0.020961 -0.276963
v 0.006336 -0.034238 -0.316502
v 0.062964 -0.021160 -0.269232
v 0.077432 0.000000 -0.332729
v 0.107741 0.034077 -0.299857
v 0.085259 0.021277 -0.264530
v 0.109183 -0.034109 -0.299433
v 0.170714 -0.000198 -0.299694
v 0.144663 -0.021150 -0.238749
v 0.226233 0.034199 -0.233525
v 0.196064 0.020941 -0.205902
v 0.225218 -0.021160 -0.180186
v 0.226207 -0.034200 -0.233548
v 0.297420 -0.000000 -0.202399
v 0.322691 0.034059 -0.134631
v 0.287677 0.021244 -0.114295
v 0.294029 -0.021246 -0.106027
v 0.322693 -0.034059 -0.134630
v 0.385044 -0.000000 -0.086497
v 0.386991 0.034208 -0.027829
v 0.349425 0.021157 -0.012945
v 0.352654 -0.021087 -0.005346
v 0.387014 -0.034209 -0.027783
v 0.420209 0.000000 -0.008812
v 0.370128 -0.021160 0.055120
v 0.439131 0.000174 0.073059
v 0.413650 0.034204 0.069543
v 0.373249 0.021155 0.072028
v 0.413653 -0.034206 0.069572
v 0.372573 -0.021051 0.110289
v 0.428298 0.000002 0.156191
v 0.367247 0.021061 0.133480
v 0.402262 0.034051 0.160186
v 0.403017 -0.034459 0.158345
v 0.392828 0.000015 0.221011
v 0.341212 0.021123 0.181016
v 0.343979 -0.021023 0.180809
v 0.346971 -0.034142 0.233536
v 0.340297 0.000218 0.270994
v 0.328130 0.034325 0.251338
v 0.249870 0.001495 0.320282
v 0.279139 0.021410 0.235062
v 0.250824 -0.020566 0.249628
v 0.265809 -0.033281 0.287465
v 0.207673 0.036873 0.306678
v 0.108456 0.008527 0.345965
v 0.152071 0.025948 0.277672
v 0.140643 -0.015949 0.278191
v 0.135940 -0.027910 0.319485
v 0.068566 0.045251 0.321000
v -0.050527 0.020650 0.338200
v -0.006240 0.037016 0.276996
v -0.001279 -0.005852 0.278696
v -0.010159 -0.017267 0.318630
v -0.077828 0.056087 0.307366
v -0.174462 0.027601 0.309596
v -0.114657 0.001717 0.260287
v -0.126597 0.044686 0.255480
v -0.139583 -0.008945 0.296194
v -0.182916 0.061027 0.277745
v -0.264609 0.028835 0.258100
v -0.190707 0.004343 0.231560
v -0.201839 0.046700 0.222324
v -0.234873 0.004591 0.196188
v -0.235371 -0.006609 0.252183
v -0.260364 0.061852 0.225528
v -0.313383 0.029117 0.198822
v -0.255737 0.047077 0.167947
v -0.339514 0.029747 0.139503
v -0.268278 0.004960 0.149600
v -0.304624 -0.006173 0.169979
v -0.277411 0.047591 0.112900
v -0.315465 0.062478 0.135061
v -0.282438 0.005694 0.094121
v -0.347046 0.031032 0.072427
v -0.324823 -0.004773 0.080417
v -0.332366 0.033606 -0.014932
v -0.279978 0.048906 0.050715
v -0.313985 0.065188 0.017967
v -0.278261 0.007332 0.027170
v -0.310560 -0.002383 -0.010395
v -0.273986 0.037179 -0.122332
v -0.268049 0.068716 -0.083098
v -0.239748 0.010379 -0.060295
v -0.238424 0.052575 -0.059842
v -0.254448 0.001404 -0.110875
v -0.190991 0.040184 -0.206341
v -0.195678 0.071693 -0.165669
v -0.173391 0.013191 -0.137826
v -0.149374 0.055853 -0.153716
v -0.176807 0.004069 -0.189140
v -0.090868 0.038435 -0.266432
v -0.111730 0.072152 -0.226019
v -0.094433 0.013601 -0.194894
v -0.077191 0.055478 -0.198968
v -0.091578 0.003377 -0.241688
v -0.033453 0.011851 -0.213129
v -0.005363 0.036281 -0.276819
v -0.015054 0.000740 -0.255080
v -0.016994 0.069246 -0.252151
v -0.007490 0.052836 -0.211327
v 0.076309 0.032781 -0.261266
v 0.022050 0.009739 -0.209306
v 0.069965 -0.002357 -0.238746
v 0.094533 0.065159 -0.224583
v 0.079343 0.049943 -0.187921
v 0.175687 0.030363 -0.207901
v 0.095443 0.007221 -0.182395
v 0.167667 -0.005147 -0.184969
v 0.187049 0.062814 -0.165431
v 0.162597 0.047856 -0.134114
v 0.253488 0.029061 -0.136963
v 0.177196 0.005385 -0.123773
v 0.246142 -0.006221 -0.110275
v 0.318770 0.028909 -0.048473
v 0.262043 0.061901 -0.085431
v 0.230271 0.047116 -0.061540
v 0.239521 0.004752 -0.051922
v 0.309903 -0.006547 -0.016134
v 0.362042 0.028547 0.058832
v 0.319299 0.061812 0.010840
v 0.281965 0.046956 0.024751
v 0.286041 0.004702 0.029572
v 0.336243 0.061794 0.078532
v 0.296584 0.046941 0.081127
v 0.299426 0.004696 0.093404
v 0.341150 -0.006586 0.080986
v 0.358474 0.028713 0.129674
v 0.329034 -0.006683 0.144469
v 0.334181 0.029123 0.183123
v 0.328471 0.062121 0.141900
v 0.290692 0.046882 0.128737
v 0.288667 0.004776 0.134221
v 0.263744 0.028746 0.240970
v 0.289833 -0.006675 0.196940
v 0.269442 0.061833 0.207165
v 0.243496 0.046927 0.176089
v 0.251314 0.004735 0.173629
v 0.152405 0.029131 0.273765
v 0.197474 -0.006430 0.240588
v 0.170819 0.062053 0.243656
v 0.160941 0.047170 0.205122
v 0.167970 0.004878 0.205642
v 0.017392 0.030724 0.279238
v 0.066219 0.005719 0.215964
v 0.082549 -0.005540 0.256671
v 0.051683 0.063109 0.253788
v 0.052051 0.048233 0.214077
v -0.114858 0.033545 0.255269
v -0.040762 0.007724 0.207574
v -0.040848 -0.003463 0.249137
v -0.070193 0.065633 0.239732
v -0.059572 0.050450 0.201510
v -0.193092 0.036622 0.217324
v -0.140017 0.010513 0.176050
v -0.160330 -0.000087 0.212401
v -0.179668 0.069221 0.195787
v -0.155640 0.053476 0.164079
v -0.237399 0.039156 0.179303
v -0.189782 0.013200 0.137227
v -0.227524 0.072430 0.146466
v -0.227819 0.003611 0.157276
v -0.264838 0.042197 0.133014
v -0.204125 0.057012 0.109238
v -0.209250 0.015585 0.102183
v -0.274014 0.045697 0.080012
v -0.247035 0.077021 0.082786
v -0.204225 0.060386 0.059736
v -0.255587 0.008503 0.079752
v -0.264034 0.049438 0.022152
v -0.208642 0.018871 0.051266
v -0.220773 0.054710 -0.069257
v -0.214065 0.083020 -0.021890
v -0.179923 0.064325 -0.004805
v -0.221337 0.015639 -0.029513
v -0.170215 0.023793 -0.034507
v -0.149272 0.057414 -0.152203
v -0.128150 0.087575 -0.133521
v -0.105322 0.068178 -0.102947
v -0.135856 0.019942 -0.141176
v -0.073240 0.056643 -0.199806
v -0.085385 0.026557 -0.126603
v -0.053752 0.086385 -0.172989
v -0.058769 0.018460 -0.182434
v -0.031023 0.066621 -0.139939
v 0.004072 0.052660 -0.205845
v 0.013873 0.082827 -0.176075
v 0.025949 0.062991 -0.131938
v -0.006553 0.023341 -0.146248
v 0.011572 0.014783 -0.185695
v 0.074757 0.047469 -0.184568
v 0.100179 0.075804 -0.138086
v 0.077490 0.016822 -0.111758
v 0.143298 0.041902 -0.142151
v 0.102521 0.056752 -0.090267
v 0.127919 0.005469 -0.128948
v 0.208909 0.037091 -0.083144
v 0.195811 0.068576 -0.058865
v 0.181880 0.051289 -0.012370
v 0.170735 0.009814 -0.033593
v 0.260967 0.034239 -0.015695
v 0.251735 0.065875 0.025536
v 0.214931 0.049769 0.039443
v 0.219445 0.007555 0.041764
v 0.248897 -0.002324 0.002214
v 0.288456 0.033425 0.050194
v 0.264050 0.065984 0.084187
v 0.224697 0.049634 0.081337
v 0.227460 0.007572 0.082104
v 0.269445 -0.002701 0.085208
v 0.288005 0.033757 0.102618
v 0.250590 0.066545 0.123196
v 0.254636 -0.001659 0.127759
v 0.266264 0.034736 0.151536
v 0.215881 0.008180 0.112533
v 0.218520 0.068073 0.157186
v 0.205521 0.050227 0.119065
v 0.218971 0.000068 0.165126
v 0.196187 0.038314 0.200526
v 0.173018 0.010203 0.142404
v 0.143957 0.071702 0.186669
v 0.131864 0.054141 0.149803
v 0.136171 0.004231 0.196783
v 0.088442 0.044177 0.223862
v 0.081317 0.015109 0.162547
v 0.025615 0.079421 0.195334
v 0.027786 0.060759 0.157006
v 0.010792 0.012753 0.203285
v -0.058708 0.057768 0.211633
v -0.065454 0.090716 0.176376
v -0.056172 0.071369 0.139899
v -0.039508 0.025935 0.153811
v -0.078945 0.023992 0.183783
v -0.125658 0.103464 0.147293
v -0.109306 0.082587 0.114311
v -0.122117 0.042321 0.116667
v -0.146386 0.038312 0.151105
v -0.148574 0.076101 0.170033
v -0.176296 0.122729 0.099257
v -0.152960 0.099165 0.072967
v -0.170583 0.060755 0.070699
v -0.204811 0.060581 0.095588
v -0.208342 0.098883 0.113237
v -0.209943 0.151200 0.026171
v -0.182425 0.124177 0.008747
v -0.203079 0.088280 0.000039
v -0.243360 0.093116 0.012081
v -0.247602 0.132003 0.028232
vt 0.002985 0.700000
vt 0.000000 0.800000
vt 0.002985 0.900000
vt 0.002985 0.300000
vt 0.000000 0.400000
vt 0.002985 0.500000
vt 0.095031 0.300000
vt 0.101479 0.100000
vt 0.092537 0.100000
vt 0.107034 0.300000
vt 0.113223 0.100000
vt 0.096002 0.500000
vt 0.101479 0.700000
vt 0.108030 0.500000
vt 0.113225 0.700000
vt 0.119802 0.500000
vt 0.155260 0.100000
vt 0.161369 0.900000
vt 0.148422 0.900000
vt 0.148895 0.500000
vt 0.155257 0.700000
vt 0.158209 0.500000
vt 0.167124 0.100000
vt 0.173839 0.900000
vt 0.179056 0.700000
vt 0.167124 0.700000
vt 0.179050 0.100000
vt 0.182090 0.900000
vt 0.190978 0.700000
vt 0.197570 0.500000
vt 0.188060 0.500000
vt 0.202315 0.300000
vt 0.190840 0.300000
vt 0.204821 0.100000
vt 0.214024 0.900000
vt 0.202777 0.900000
vt 0.214114 0.300000
vt 0.225773 0.100000
vt 0.213670 0.500000
vt 0.204487 0.700000
vt 0.220943 0.700000
vt 0.226066 0.900000
vt 0.232007 0.300000
vt 0.238876 0.700000
vt 0.243778 0.900000
vt 0.250315 0.100000
vt 0.238551 0.500000
vt 0.259008 0.300000
vt 0.262323 0.700000
vt 0.267500 0.900000
vt 0.286546 0.700000
vt 0.274248 0.100000
vt 0.293473 0.900000
vt 0.287223 0.300000
vt 0.299557 0.100000
vt 0.311398 0.700000
vt 0.317845 0.900000
vt 0.311734 0.300000
vt 0.322516 0.100000
vt 0.329538 0.500000
vt 0.308222 0.500000
vt 0.336589 0.700000
vt 0.341229 0.900000
vt 0.333926 0.300000
vt 0.345910 0.100000
vt 0.346776 0.500000
vt 0.358867 0.900000
vt 0.357747 0.300000
vt 0.372640 0.100000
vt 0.373119 0.900000
vt 0.364451 0.500000
vt 0.376086 0.300000
vt 0.363672 0.700000
vt 0.385484 0.700000
vt 0.387399 0.900000
vt 0.393648 0.300000
vt 0.399982 0.100000
vt 0.381518 0.500000
vt 0.399435 0.500000
vt 0.405304 0.900000
vt 0.422997 0.300000
vt 0.423888 0.100000
vt 0.405624 0.700000
vt 0.422625 0.500000
vt 0.429563 0.900000
vt 0.447655 0.100000
vt 0.429900 0.700000
vt 0.446876 0.500000
vt 0.454186 0.900000
vt 0.454126 0.300000
vt 0.472254 0.100000
vt 0.454166 0.700000
vt 0.472941 0.500000
vt 0.480916 0.900000
vt 0.477983 0.300000
vt 0.497722 0.100000
vt 0.478917 0.700000
vt 0.493139 0.500000
vt 0.498944 0.700000
vt 0.500724 0.300000
vt 0.509970 0.500000
vt 0.518853 0.900000
vt 0.500789 0.900000
vt 0.525663 0.300000
vt 0.519428 0.700000
vt 0.530131 0.500000
vt 0.525265 0.100000
vt 0.542154 0.900000
vt 0.549762 0.300000
vt 0.543746 0.700000
vt 0.554074 0.500000
vt 0.549387 0.100000
vt 0.563651 0.900000
vt 0.573127 0.300000
vt 0.566895 0.700000
vt 0.576240 0.500000
vt 0.573133 0.100000
vt 0.586344 0.900000
vt 0.591559 0.700000
vt 0.599286 0.500000
vt 0.597989 0.100000
vt 0.611117 0.900000
vt 0.615760 0.700000
vt 0.619175 0.500000
vt 0.633254 0.300000
vt 0.614752 0.300000
vt 0.626976 0.900000
vt 0.632786 0.700000
vt 0.635546 0.500000
vt 0.650043 0.700000
vt 0.654723 0.500000
vt 0.655698 0.100000
vt 0.660768 0.900000
vt 0.640355 0.900000
vt 0.674228 0.700000
vt 0.678779 0.500000
vt 0.680058 0.100000
vt 0.684874 0.900000
vt 0.698238 0.700000
vt 0.701411 0.500000
vt 0.704501 0.100000
vt 0.710785 0.900000
vt 0.722365 0.700000
vt 0.728738 0.100000
vt 0.736136 0.900000
vt 0.723905 0.500000
vt 0.728363 0.300000
vt 0.704500 0.300000
vt 0.753713 0.100000
vt 0.753151 0.900000
vt 0.747592 0.500000
vt 0.753076 0.300000
vt 0.765065 0.900000
vt 0.770121 0.100000
vt 0.776166 0.900000
vt 0.765037 0.500000
vt 0.777018 0.300000
vt 0.767116 0.700000
vt 0.778989 0.500000
vt 0.786603 0.700000
vt 0.786912 0.100000
vt 0.787197 0.900000
vt 0.798952 0.900000
vt 0.811038 0.700000
vt 0.811013 0.100000
vt 0.817764 0.900000
vt 0.794054 0.300000
vt 0.795297 0.500000
vt 0.811015 0.300000
vt 0.817159 0.500000
vt 0.837388 0.700000
vt 0.837659 0.100000
vt 0.836886 0.900000
vt 0.837216 0.300000
vt 0.844056 0.500000
vt 0.852042 0.900000
vt 0.853881 0.700000
vt 0.857614 0.300000
vt 0.864159 0.500000
vt 0.866865 0.100000
vt 0.876579 0.900000
vt 0.864847 0.900000
vt 0.866957 0.700000
vt 0.888370 0.700000
vt 0.883313 0.100000
vt 0.888746 0.900000
vt 0.902944 0.100000
vt 0.901707 0.900000
vt 0.916419 0.700000
vt 0.914581 0.900000
vt 0.919941 0.100000
vt 0.925940 0.900000
vt 0.931759 0.100000
vt 0.934328 0.900000
vt 0.945674 0.300000
vt 0.948920 0.100000
vt 0.940298 0.100000
vt 0.954579 0.900000
vt 0.942545 0.900000
vt 0.942368 0.500000
vt 0.949158 0.700000
vt 0.954155 0.500000
vt 0.960562 0.100000
vt 0.967041 0.900000
vt 0.960916 0.300000
vt 0.961301 0.700000
vt 0.967116 0.500000
vt 0.973406 0.100000
vt 0.980249 0.900000
vt 0.973301 0.300000
vt 0.974150 0.700000
vt 0.979545 0.500000
vt 0.000000 0.600000
vt 0.002985 0.100000
vt 0.000000 0.200000
vt 0.000000 0.000000
vt 0.000000 1.000000
vt 0.008955 0.300000
vt 0.011563 0.100000
vt 0.011562 0.700000
vt 0.008955 0.900000
vt 0.014925 0.900000
vt 0.014925 0.300000
vt 0.017455 0.500000
vt 0.023669 0.700000
vt 0.024497 0.300000
vt 0.029626 0.500000
vt 0.035814 0.700000
vt 0.036168 0.300000
vt 0.087665 0.700000
vt 0.083311 0.900000
vt 0.092537 0.900000
vt 0.116418 0.300000
vt 0.125576 0.300000
vt 0.124945 0.700000
vt 0.122388 0.900000
vt 0.131438 0.900000
vt 0.134328 0.100000
vt 0.125082 0.100000
vt 0.131905 0.500000
vt 0.134328 0.700000
vt 0.143678 0.700000
vt 0.140299 0.900000
vt 0.143546 0.100000
vt 0.142560 0.300000
vt 0.140299 0.500000
vt 0.260795 0.500000
vt 0.614932 0.100000
vt 0.632198 0.100000
vt 0.747675 0.700000
vt 0.853869 0.100000
vt 0.871721 0.300000
vt 0.888253 0.300000
vt 0.883117 0.500000
vt 0.903724 0.500000
vt 0.907392 0.300000
vt 0.920624 0.500000
vt 0.931744 0.700000
vt 0.940298 0.700000
vt 0.982090 0.100000
vt 1.000000 0.700000
vt 1.000000 0.900000
vt 1.000000 0.100000
vt 1.000000 0.300000
vt 1.000000 0.500000
vt 0.023671 0.100000
vt 0.008955 0.500000
vt 0.024587 0.900000
vt 0.035818 0.100000
vt 0.036716 0.900000
vt 0.047518 0.300000
vt 0.047938 0.100000
vt 0.048031 0.900000
vt 0.038806 0.500000
vt 0.048038 0.700000
vt 0.048543 0.500000
vt 0.059004 0.300000
vt 0.059838 0.100000
vt 0.059803 0.900000
vt 0.059836 0.700000
vt 0.059976 0.500000
vt 0.071086 0.300000
vt 0.071920 0.100000
vt 0.070996 0.900000
vt 0.071918 0.700000
vt 0.072058 0.500000
vt 0.083164 0.300000
vt 0.083999 0.100000
vt 0.084136 0.500000
vt 0.101699 0.900000
vt 0.113744 0.900000
vt 0.134328 0.300000
vt 0.154626 0.300000
vt 0.166629 0.300000
vt 0.167623 0.500000
vt 0.178909 0.300000
vt 0.179871 0.500000
vt 0.190974 0.100000
vt 0.191652 0.900000
vt 0.285772 0.500000
vt 0.597700 0.300000
vt 0.657173 0.300000
vt 0.680423 0.300000
vt 0.919637 0.300000
vt 0.931790 0.300000
vt 0.931825 0.500000
vt 0.982090 0.300000
vt 0.988060 0.300000
vt 0.988060 0.100000
vt 0.988060 0.900000
vt 0.982090 0.700000
vt 0.994030 0.300000
vt 0.994030 0.100000
vt 0.988060 0.700000
vt 0.988060 0.500000
vt 0.994030 0.900000
vt 0.994030 0.700000
vt 0.994030 0.500000
vn 0.1844 -0.5870 0.7883
vn -0.3901 0.0000 -0.9208
vn 0.2831 0.9444 0.1669
vn 0.2359 0.9414 0.2410
vn 0.2188 -0.9602 0.1738
vn 0.1615 -0.9603 0.2274
vn 0.5344 0.4781 -0.6970
vn -0.1681 -0.9583 0.2311
vn 0.6816 0.5196 -0.5153
vn 0.6565 -0.6420 -0.3961
vn 0.7620 0.5482 -0.3449
vn -0.2916 -0.9564 0.0148
vn -0.9927 -0.0721 -0.0971
vn 0.7475 0.5236 0.4089
vn -0.2752 0.9343 -0.2266
vn -0.8758 -0.0551 -0.4796
vn 0.6084 -0.6495 0.4562
vn 0.5756 0.5527 0.6027
vn -0.6562 -0.0394 -0.7535
vn 0.4263 -0.6275 0.6516
vn 0.4024 0.5606 0.7237
vn -0.1344 0.9324 -0.3354
vn -0.3195 -0.1110 -0.9411
vn 0.1594 -0.6379 0.7534
vn 0.1770 0.5300 0.8293
vn -0.0491 -0.6112 0.7900
vn 0.0027 0.5642 0.8256
vn 0.1013 0.9325 -0.3467
vn -0.1745 -0.5919 0.7869
vn -0.1523 0.5794 0.8007
vn 0.1382 0.9322 -0.3347
vn 0.0595 -0.9675 -0.2460
vn -0.3470 -0.5966 0.7236
vn -0.3989 0.5777 0.7121
vn 0.3994 -0.0939 -0.9120
vn 0.2218 0.9230 -0.3143
vn 0.1489 -0.9699 -0.1927
vn -0.6229 0.5885 0.5154
vn 0.7048 -0.1188 -0.6994
vn -0.7383 0.5874 0.3315
vn 0.9238 -0.1162 -0.3648
vn -0.7738 -0.6116 0.1649
vn -0.7952 0.5979 0.1007
vn 0.4110 0.9113 0.0263
vn 0.9941 -0.0999 -0.0431
vn 0.2424 -0.9701 -0.0086
vn -0.8004 0.5879 -0.1172
vn 0.3498 0.9172 0.1910
vn 0.9263 -0.1560 0.3430
vn 0.2197 -0.9735 0.0628
vn -0.7151 0.5936 -0.3690
vn 0.2810 0.9182 0.2794
vn 0.1819 -0.9759 0.1203
vn -0.5716 0.6155 -0.5427
vn 0.7196 -0.1528 0.6773
vn 0.2295 0.9170 0.3262
vn 0.1248 -0.9783 0.1656
vn -0.4097 0.5852 -0.6998
vn 0.5258 -0.1348 0.8399
vn 0.1353 0.9113 0.3890
vn 0.0364 -0.9758 0.2154
vn -0.1609 -0.5669 -0.8079
vn 0.1672 -0.1487 0.9746
vn -0.0530 -0.9708 0.2339
vn 0.1714 0.6283 -0.7588
vn -0.2621 -0.1348 0.9556
vn -0.1124 -0.9700 0.2157
vn 0.3956 0.5821 -0.7104
vn -0.5420 -0.0963 0.8349
vn -0.1590 -0.9685 0.1914
vn 0.5518 0.5848 -0.5945
vn -0.7291 -0.0853 0.6790
vn -0.1942 -0.9678 0.1600
vn 0.6534 0.5846 -0.4810
vn 0.6710 -0.5842 -0.4565
vn -0.2185 -0.9679 0.1241
vn 0.7762 0.5484 -0.3111
vn 0.7581 -0.6047 -0.2442
vn -0.2463 -0.9678 0.0516
vn -0.9872 -0.1020 -0.1223
vn 0.7900 -0.5945 0.1499
vn -0.1818 -0.9679 -0.1733
vn 0.5224 0.5637 0.6398
vn -0.0921 -0.9675 -0.2353
vn 0.2314 0.5829 0.7789
vn 0.1060 -0.6032 0.7905
vn -0.0337 -0.9667 -0.2538
vn 0.0396 0.5911 0.8056
vn -0.0588 -0.6014 0.7968
vn -0.1338 0.5765 0.8060
vn 0.1096 -0.0922 -0.9897
vn -0.3259 0.6109 0.7215
vn 0.3565 -0.1282 -0.9254
vn -0.4948 0.6116 0.6173
vn -0.6569 0.6194 0.4300
vn 0.7310 -0.1810 -0.6579
vn 0.1629 -0.9741 -0.1568
vn -0.7714 -0.5897 0.2391
vn -0.7539 0.6340 0.1724
vn -0.7510 0.6545 -0.0872
vn -0.7814 -0.5571 -0.2813
vn -0.6974 0.6544 -0.2923
vn 0.9260 -0.1676 0.3384
vn 0.1589 -0.9872 0.0145
vn -0.6642 -0.5284 -0.5288
vn -0.5643 0.6827 -0.4642
vn 0.7774 -0.2399 0.5815
vn 0.1094 -0.9915 0.0710
vn -0.3906 0.6667 -0.6347
vn -0.4155 -0.5025 -0.7582
vn 0.4222 -0.2866 0.8600
vn -0.0052 -0.9900 0.1411
vn 0.2655 0.6321 -0.7280
vn 0.3167 -0.5865 -0.7455
vn 0.4421 0.6379 -0.6306
vn 0.5373 0.6437 -0.5449
vn 0.5546 -0.6256 -0.5487
vn 0.6334 0.6203 -0.4626
vn 0.7368 0.6059 -0.2999
vn 0.8017 0.5977 0.0031
vn -0.2964 0.8998 -0.3201
vn 0.4849 0.5841 0.6509
vn -0.1455 -0.9791 -0.1425
vn 0.1978 0.6233 0.7565
vn -0.3860 -0.2103 -0.8982
vn -0.0895 -0.9816 -0.1685
vn -0.0078 0.6207 0.7840
vn -0.0809 -0.2131 -0.9737
vn -0.0744 -0.9798 -0.1854
vn -0.1713 -0.9476 -0.2698
vn -0.1713 0.9476 -0.2698
vn 0.1844 0.5870 0.7883
vn 0.1691 0.9489 0.2664
vn -0.1824 0.5848 -0.7904
vn -0.1824 -0.5848 -0.7904
vn 0.1691 -0.9489 0.2664
vn 0.3872 0.0000 0.9220
vn -0.0726 0.9482 -0.3093
vn 0.1047 -0.5246 0.8449
vn -0.0349 0.9590 -0.2812
vn -0.0068 -0.9321 -0.3621
vn 0.0157 -0.0976 -0.9951
vn 0.0812 -0.9360 -0.3424
vn 0.2439 -0.1189 -0.9625
vn -0.8118 -0.5081 -0.2877
vn 0.2228 0.9600 0.1694
vn 0.2986 -0.9400 0.1652
vn 0.1759 0.9582 0.2256
vn 0.2358 -0.9415 0.2409
vn 0.4151 -0.0908 0.9052
vn -0.2085 -0.5118 -0.8334
vn -0.0981 0.6449 -0.7579
vn 0.2642 0.1222 0.9567
vn 0.0428 -0.9390 0.3413
vn 0.2839 -0.5213 -0.8048
vn 0.3640 0.6657 -0.6515
vn -0.3485 0.0796 0.9339
vn -0.1694 -0.9389 0.2995
vn 0.5347 -0.4801 -0.6954
vn 0.6816 -0.5195 -0.5153
vn 0.6565 0.6420 -0.3961
vn 0.7620 -0.5481 -0.3449
vn -0.9975 0.0559 0.0441
vn -0.3439 -0.9380 -0.0439
vn -0.2501 0.9583 -0.1382
vn -0.2938 -0.9314 -0.2151
vn -0.9230 0.0894 -0.3743
vn 0.7477 -0.5229 0.4093
vn 0.5750 0.6727 0.4656
vn -0.1819 0.9597 -0.2140
vn 0.5749 -0.5494 0.6064
vn -0.5895 0.1205 -0.7987
vn 0.4018 -0.5243 0.7508
vn 0.3275 0.6531 0.6828
vn -0.0531 0.9638 -0.2611
vn 0.0166 0.9248 -0.3801
vn -0.2484 0.0558 -0.9671
vn 0.1278 -0.5182 0.8457
vn 0.1167 0.6419 0.7578
vn 0.0679 0.9534 -0.2939
vn -0.0814 -0.5242 0.8477
vn -0.0232 0.6460 0.7630
vn 0.1166 0.9414 -0.3164
vn -0.2202 -0.5141 0.8290
vn -0.1762 0.6553 0.7345
vn 0.1560 0.9421 -0.2968
vn 0.3532 -0.0065 -0.9355
vn 0.1051 -0.9544 -0.2793
vn -0.4381 -0.4875 0.7553
vn -0.4120 0.6662 0.6216
vn 0.2327 0.9464 -0.2241
vn 0.6251 -0.0059 -0.7805
vn -0.8027 -0.4840 0.3484
vn -0.6170 0.6889 0.3806
vn 0.8127 0.0118 -0.5826
vn 0.3052 0.9458 -0.1113
vn 0.3666 0.9304 0.0045
vn 0.9689 -0.0054 -0.2474
vn -0.8550 -0.5114 0.0862
vn -0.7127 0.7014 0.0072
vn 0.9980 0.0059 0.0624
vn 0.2698 -0.9628 0.0170
vn 0.3083 0.9398 0.1471
vn -0.6723 0.6847 -0.2816
vn 0.9151 -0.0330 0.4018
vn 0.2444 -0.9645 0.1001
vn -0.5599 0.6851 -0.4660
vn 0.2490 0.9305 0.2687
vn 0.7599 -0.0308 0.6493
vn 0.1937 -0.9681 0.1592
vn -0.4241 0.6916 -0.5847
vn 0.2018 0.9277 0.3142
vn 0.5856 -0.0280 0.8101
vn 0.1272 -0.9674 0.2191
vn -0.1659 0.7134 -0.6808
vn 0.0976 0.9311 0.3515
vn 0.2858 -0.0245 0.9580
vn 0.0124 -0.9652 0.2611
vn -0.0687 -0.0003 0.9976
vn -0.1171 -0.4948 -0.8611
vn -0.0846 -0.9625 0.2578
vn 0.1986 0.6837 -0.7022
vn -0.3445 -0.0084 0.9387
vn -0.1560 -0.9597 0.2337
vn 0.4134 0.6668 -0.6201
vn -0.5828 -0.0025 0.8126
vn -0.2000 -0.9599 0.1963
vn 0.5532 0.6579 -0.5111
vn -0.7554 -0.0162 0.6551
vn 0.6844 -0.5251 -0.5058
vn -0.2326 -0.9603 0.1542
vn 0.6371 0.6716 -0.3783
vn 0.8036 -0.4981 -0.3258
vn 0.7223 0.6675 -0.1806
vn -0.2793 -0.9560 0.0895
vn 0.8709 -0.4895 0.0450
vn -0.9669 0.0133 -0.2549
vn 0.7856 -0.5026 0.3609
vn -0.2287 -0.9584 -0.1707
vn 0.5311 0.6958 0.4834
vn 0.5712 -0.4403 0.6927
vn -0.1257 -0.9572 -0.2607
vn 0.2596 0.6679 0.6975
vn 0.2472 -0.4748 0.8447
vn -0.0456 -0.9611 -0.2725
vn 0.0700 0.6516 0.7553
vn 0.0296 -0.4893 0.8716
vn -0.0723 0.6625 0.7456
vn 0.0778 -0.0183 -0.9968
vn -0.1666 -0.4763 0.8633
vn -0.2526 0.6833 0.6850
vn 0.3027 -0.0020 -0.9531
vn -0.4013 -0.4641 0.7897
vn -0.5054 0.6774 0.5345
vn 0.6152 0.0040 -0.7883
vn 0.3902 0.9186 0.0618
vn -0.7716 -0.4721 0.4263
vn -0.6625 0.7048 0.2538
vn 0.8732 -0.0251 -0.4868
vn 0.2145 -0.9669 -0.1379
vn -0.8887 -0.4412 0.1247
vn -0.8819 -0.4356 -0.1803
vn -0.6438 0.7483 -0.1599
vn 0.2184 -0.9759 0.0047
vn -0.8170 -0.4053 -0.4101
vn 0.9115 -0.0777 0.4039
vn -0.5313 0.7582 -0.3779
vn 0.1653 -0.9822 0.0887
vn -0.6805 -0.4203 -0.6003
vn 0.7356 -0.0322 0.6766
vn 0.0679 0.8761 0.4773
vn -0.4887 -0.4027 -0.7740
vn -0.3058 0.7402 -0.5988
vn 0.0769 -0.9809 0.1789
vn 0.0006 0.9122 0.4098
vn 0.2416 -0.0048 0.9704
vn -0.0423 -0.9802 0.1932
vn 0.2331 -0.4204 -0.8769
vn 0.3295 0.7153 -0.6162
vn -0.2382 0.8982 0.3695
vn 0.4386 -0.4640 -0.7696
vn 0.4922 0.6897 -0.5312
vn -0.6428 -0.0093 0.7660
vn -0.2139 0.9348 0.2835
vn 0.5663 -0.4815 -0.6689
vn -0.1962 -0.9757 0.0976
vn 0.6794 -0.4913 -0.5451
vn 0.6174 0.6848 -0.3872
vn 0.7094 0.6886 -0.1502
vn 0.8251 -0.4437 -0.3497
vn 0.7772 -0.5982 -0.1952
vn 0.8891 -0.4576 0.0106
vn 0.5401 0.6924 0.4785
vn -0.1922 -0.9715 -0.1386
vn 0.5115 -0.3995 0.7608
vn -0.5721 -0.0136 -0.8200
vn -0.1213 -0.9744 -0.1892
vn 0.0972 0.7251 0.6817
vn 0.1727 -0.4029 0.8988
vn -0.2163 -0.0384 -0.9756
vn -0.0763 -0.9790 -0.1888
vn -0.0532 0.7245 0.6872
vn -0.1091 -0.3416 0.9335
vn -0.2291 0.3519 -0.9076
vn 0.9391 0.0000 -0.3438
vn -0.0017 0.9465 -0.3228
vn -0.2357 0.0000 -0.9718
vn -0.0726 -0.9482 -0.3093
vn 0.1811 -0.6067 0.7740
vn 0.1811 0.6067 0.7740
vn -0.1156 0.0234 -0.9930
vn 0.0028 0.6133 0.7899
vn 0.0028 -0.6133 0.7899
vn 0.0746 0.9491 -0.3059
vn -0.1955 0.5856 0.7867
vn 0.0266 -0.9625 -0.2700
vn -0.1954 -0.5857 0.7866
vn 0.0970 0.1315 -0.9866
vn 0.1690 0.9484 -0.2683
vn -0.4385 0.5869 0.6806
vn 0.0990 -0.9585 -0.2674
vn -0.4368 -0.5897 0.6794
vn 0.3464 0.0683 -0.9356
vn 0.1794 -0.9453 -0.2725
vn 0.5475 -0.0201 -0.8365
vn 0.2591 0.9491 -0.1791
vn -0.6724 0.5814 0.4582
vn -0.6748 -0.5800 0.4564
vn 0.2648 -0.9480 -0.1763
vn 0.8267 -0.0027 -0.5626
vn 0.3033 0.9501 -0.0733
vn -0.7806 0.5976 0.1832
vn -0.7813 -0.5964 0.1840
vn 0.3031 -0.9504 -0.0694
vn 0.9723 -0.0007 -0.2337
vn 0.3110 0.9502 0.0215
vn -0.8077 0.5872 -0.0528
vn -0.7837 -0.6173 -0.0683
vn 0.3228 -0.9459 0.0321
vn 0.9975 0.0010 0.0701
vn 0.2835 0.9533 0.1040
vn -0.7641 0.5843 -0.2734
vn -0.6931 0.5911 -0.4126
vn 0.2550 -0.9616 0.1017
vn 0.9333 0.0011 0.3592
vn -0.6841 -0.6160 -0.3906
vn -0.5630 0.5897 -0.5790
vn 0.7921 0.0014 0.6104
vn -0.5643 -0.5872 -0.5802
vn 0.1405 0.9486 0.2837
vn -0.3648 0.6141 -0.6999
vn 0.5934 0.0197 0.8047
vn -0.3676 -0.6107 -0.7014
vn 0.0377 0.9502 0.3093
vn 0.1594 -0.9385 0.3064
vn -0.2084 0.5121 -0.8333
vn -0.0484 0.9494 0.3103
vn 0.0742 -0.9627 0.2601
vn 0.0986 0.5859 -0.8043
vn -0.0992 -0.6456 -0.7572
vn 0.0993 -0.5871 -0.8034
vn 0.1246 -0.0856 0.9885
vn -0.0427 -0.9486 0.3136
vn -0.1205 0.0016 0.9927
vn 0.2859 0.5214 -0.8040
vn -0.1468 0.9513 0.2710
vn -0.2207 0.9509 0.2170
vn -0.0977 -0.9601 0.2621
vn 0.3650 -0.6673 -0.6492
vn -0.4647 -0.1174 0.8776
vn -0.2271 -0.9493 0.2172
vn 0.5442 0.6505 -0.5298
vn -0.5858 0.0865 0.8058
vn 0.5442 -0.6505 -0.5299
vn -0.7184 -0.0222 0.6953
vn -0.2623 0.9519 0.1585
vn -0.2646 -0.9515 0.1568
vn -0.8591 -0.0013 0.5119
vn -0.2997 0.9504 0.0830
vn 0.7745 0.6010 -0.1975
vn 0.7759 -0.5994 -0.1967
vn -0.3094 -0.9470 0.0860
vn -0.9615 -0.0313 0.2730
vn -0.3162 0.9481 -0.0346
vn 0.7936 0.5998 0.1026
vn 0.8000 -0.5918 0.0985
vn -0.1747 -0.9555 -0.2379
vn -0.2583 -0.9604 -0.1043
vn -0.1110 -0.9528 -0.2827
vn -0.0685 -0.9556 -0.2865
vn -0.0013 -0.0261 -0.9997
vn -0.0147 -0.9583 -0.2855
vn 0.1656 -0.0421 -0.9853
vn -0.6225 -0.5881 0.5163
vn 0.3493 0.9140 -0.2064
vn 0.2148 -0.9604 -0.1772
vn 0.2579 -0.9632 -0.0753
vn -0.8310 -0.5358 -0.1499
vn -0.7397 -0.5210 -0.4259
vn -0.5967 -0.5226 -0.6089
vn -0.4501 -0.5151 -0.7295
vn -0.0633 0.9256 0.3731
vn -0.0841 0.5778 -0.8118
vn 0.1362 -0.5478 -0.8254
vn -0.1766 0.9337 0.3114
vn 0.3865 -0.5533 -0.7379
vn -0.2528 0.9356 0.2465
vn 0.5637 -0.5526 -0.6139
vn -0.3021 0.9358 0.1816
vn -0.8620 -0.0497 0.5045
vn -0.3423 0.9355 0.0873
vn -0.9734 -0.0338 0.2268
vn -0.3563 0.9332 -0.0461
vn 0.7800 0.6225 0.0636
vn -0.2679 -0.9616 -0.0589
vn -0.2669 0.9308 -0.2498
vn 0.7581 0.5563 0.3403
vn -0.7142 -0.0740 -0.6960
vn 0.6374 -0.6058 0.4763
vn -0.1198 0.9335 -0.3378
vn -0.3451 -0.0391 -0.9377
vn 0.3304 -0.6301 0.7027
vn -0.0209 0.9353 -0.3532
vn -0.0915 -0.0511 -0.9945
vn 0.0591 0.9341 -0.3520
vn 0.0011 -0.9647 -0.2634
vn 0.1611 0.9297 -0.3313
vn 0.0527 -0.9652 -0.2561
vn -0.2470 -0.6177 0.7466
vn 0.2980 0.9300 -0.2154
vn -0.5505 -0.5552 0.6235
vn 0.1230 -0.9679 -0.2192
vn 0.9935 -0.1138 -0.0025
vn 0.4600 0.8845 -0.0772
vn 0.1797 -0.9818 -0.0612
vn 0.4217 0.8856 0.1947
vn 0.3445 0.8898 0.2993
vn 0.2187 0.8931 0.3931
vn -0.0098 0.6891 -0.7246
vn -0.0795 -0.4594 -0.8847
vn -0.1232 0.9069 0.4028
vn -0.1496 -0.2249 0.9628
vn -0.1503 -0.9754 0.1609
vn -0.4326 -0.0908 0.8970
vn -0.3205 0.9169 0.2377
vn -0.1775 -0.9763 0.1242
vn -0.2144 -0.9666 0.1403
vn -0.6963 -0.1698 0.6974
vn -0.8406 -0.0551 0.5388
vn -0.3804 0.9210 0.0838
vn -0.2455 -0.9679 0.0540
vn -0.9746 -0.0764 0.2106
vn -0.3446 0.9249 -0.1605
vn 0.7148 0.6431 0.2749
vn 0.7926 -0.5139 0.3281
vn -0.2283 -0.9717 -0.0606
vn -0.9064 -0.1135 -0.4070
vn -0.1132 0.9125 -0.3930
vn 0.5828 -0.5667 0.5824
vn 0.0268 0.8992 -0.4367
vn 0.2872 0.7142 0.6384
vn 0.2705 -0.5622 0.7815
vn 0.1974 0.8858 -0.4199
vn 0.0052 -0.5568 0.8306
vn 0.3580 0.8592 -0.3655
vn 0.0684 -0.0408 -0.9968
vn -0.1765 0.7064 0.6854
vn -0.2430 -0.5263 0.8148
vn -0.0848 -0.9809 -0.1752
vn 0.5382 0.8066 -0.2444
vn 0.1659 -0.2326 -0.9583
vn -0.4578 -0.4026 0.7926
vn -0.1079 -0.9745 -0.1968
vn -0.2896 0.7433 0.6031
vn 0.3883 -0.1550 -0.9084
vn 0.6895 0.7235 -0.0351
vn -0.7122 -0.3469 0.6103
vn -0.1560 -0.9625 -0.2217
vn -0.3773 0.7907 0.4821
vn 0.6182 -0.2400 -0.7485
vn -0.9139 -0.2365 0.3299
vn -0.1958 -0.9409 -0.2763
vn 0.7985 -0.3377 -0.4983
vn 0.1047 0.5246 0.8449
vn -0.0307 -0.9603 -0.2773
usemtl Rope
s off
f 9/1/1 5/2/1 10/3/1
f 7/4/2 3/5/2 8/6/2
f 51/7/3 54/8/3 48/9/3
f 54/8/4 56/10/4 59/11/4
f 52/12/5 55/13/5 57/14/5
f 61/15/6 62/16/6 57/14/6
f 79/17/7 83/18/7 77/19/7
f 78/20/8 82/21/8 81/22/8
f 83/18/9 84/23/9 88/24/9
f 88/24/10 92/25/10 87/26/10
f 88/24/11 89/27/11 93/28/11
f 98/29/12 99/30/12 94/31/12
f 99/30/13 101/32/13 97/33/13
f 102/34/14 104/35/14 100/36/14
f 105/37/15 109/38/15 102/34/15
f 106/39/16 105/37/16 101/32/16
f 103/40/17 104/35/17 107/41/17
f 109/38/18 108/42/18 104/35/18
f 106/39/19 111/43/19 105/37/19
f 107/41/20 108/42/20 113/44/20
f 109/38/21 110/45/21 108/42/21
f 111/43/22 114/46/22 109/38/22
f 112/47/23 116/48/23 111/43/23
f 113/44/24 110/45/24 118/49/24
f 114/46/25 115/50/25 110/45/25
f 118/49/26 115/50/26 123/51/26
f 119/52/27 120/53/27 115/50/27
f 119/52/28 121/54/28 124/55/28
f 120/53/29 128/56/29 123/51/29
f 120/53/30 124/55/30 125/57/30
f 124/55/31 127/58/31 129/59/31
f 128/56/32 131/60/32 126/61/32
f 125/57/33 134/62/33 128/56/33
f 125/57/34 129/59/34 130/63/34
f 131/60/35 132/64/35 127/58/35
f 129/59/36 132/64/36 135/65/36
f 134/62/37 133/66/37 131/60/37
f 130/63/38 135/65/38 136/67/38
f 133/66/39 137/68/39 132/64/39
f 136/67/40 142/69/40 138/70/40
f 139/71/41 141/72/41 137/68/41
f 140/73/42 138/70/42 145/74/42
f 142/69/43 144/75/43 138/70/43
f 147/76/44 148/77/44 142/69/44
f 141/72/45 143/78/45 147/76/45
f 143/78/46 145/74/46 149/79/46
f 148/77/47 146/80/47 144/75/47
f 154/81/48 152/82/48 148/77/48
f 147/76/49 149/79/49 154/81/49
f 149/79/50 150/83/50 153/84/50
f 152/82/51 151/85/51 146/80/51
f 154/81/52 157/86/52 152/82/52
f 153/84/53 155/87/53 158/88/53
f 157/86/54 156/89/54 151/85/54
f 154/81/55 158/88/55 159/90/55
f 157/86/56 159/90/56 162/91/56
f 160/92/57 163/93/57 158/88/57
f 156/89/58 162/91/58 161/94/58
f 163/93/59 164/95/59 159/90/59
f 162/91/60 164/95/60 169/96/60
f 165/97/61 166/98/61 163/93/61
f 165/97/62 161/94/62 168/99/62
f 166/98/63 170/100/63 164/95/63
f 166/98/64 168/99/64 172/101/64
f 169/96/65 171/102/65 167/103/65
f 170/100/66 172/101/66 175/104/66
f 172/101/67 173/105/67 177/106/67
f 174/107/68 176/108/68 171/102/68
f 175/104/69 177/106/69 180/109/69
f 177/106/70 178/110/70 182/111/70
f 179/112/71 181/113/71 176/108/71
f 180/109/72 182/111/72 186/114/72
f 182/111/73 183/115/73 187/116/73
f 185/117/74 184/118/74 181/113/74
f 184/118/75 188/119/75 183/115/75
f 188/119/76 192/120/76 187/116/76
f 184/118/77 190/121/77 189/122/77
f 189/122/78 196/123/78 188/119/78
f 196/123/79 195/124/79 192/120/79
f 195/124/80 201/125/80 194/126/80
f 197/127/81 198/128/81 196/123/81
f 202/129/82 204/130/82 207/131/82
f 205/132/83 203/133/83 199/134/83
f 207/131/84 209/135/84 212/136/84
f 210/137/85 208/138/85 203/133/85
f 209/135/86 208/138/86 215/139/86
f 212/136/87 215/139/87 214/140/87
f 216/141/88 213/142/88 208/138/88
f 213/142/89 220/143/89 215/139/89
f 213/142/90 221/144/90 218/145/90
f 219/146/91 222/147/91 217/148/91
f 218/145/92 226/149/92 223/150/92
f 224/151/93 227/152/93 222/147/93
f 223/150/94 226/149/94 228/153/94
f 228/153/95 230/154/95 232/155/95
f 229/156/96 233/157/96 227/152/96
f 231/158/97 234/159/97 229/156/97
f 232/155/98 238/160/98 231/158/98
f 236/161/99 235/162/99 232/155/99
f 236/161/100 239/163/100 235/162/100
f 238/160/101 239/163/101 244/164/101
f 242/165/102 241/166/102 239/163/102
f 237/167/103 240/168/103 243/169/103
f 240/168/104 244/164/104 245/170/104
f 241/166/105 249/171/105 244/164/105
f 241/166/106 247/172/106 246/173/106
f 245/170/107 248/174/107 243/169/107
f 249/171/108 251/175/108 245/170/108
f 246/173/109 247/172/109 250/176/109
f 250/176/110 253/177/110 249/171/110
f 251/175/111 254/178/111 248/174/111
f 253/177/112 258/179/112 251/175/112
f 256/180/113 260/181/113 255/182/113
f 259/183/114 260/181/114 265/184/114
f 261/185/115 263/186/115 260/181/115
f 267/187/116 266/188/116 263/186/116
f 266/188/117 274/189/117 265/184/117
f 266/188/118 267/187/118 270/190/118
f 270/190/119 271/191/119 275/192/119
f 275/192/120 276/193/120 280/194/120
f 286/195/121 285/196/121 281/197/121
f 285/196/122 288/198/122 283/199/122
f 284/200/123 287/201/123 289/202/123
f 290/203/124 293/204/124 288/198/124
f 286/195/125 289/202/125 291/205/125
f 289/202/126 292/206/126 294/207/126
f 293/204/127 295/208/127 298/209/127
f 294/207/128 296/210/128 291/205/128
f 297/211/129 301/212/129 294/207/129
f 8/6/130 4/213/130 9/1/130
f 6/214/131 2/215/131 7/4/131
f 10/3/132 1/216/132 6/214/132
f 1/216/133 2/215/133 6/214/133
f 2/215/134 3/5/134 7/4/134
f 3/5/135 4/213/135 8/6/135
f 4/213/136 5/2/136 9/1/136
f 10/3/137 5/2/137 1/217/137
f 6/214/138 7/4/138 11/218/138 14/219/138
f 16/220/139 13/221/139 17/222/139
f 15/223/140 14/219/140 11/218/140
f 18/224/141 16/220/141 22/225/141
f 15/223/142 18/224/142 21/226/142
f 23/227/143 22/225/143 28/228/143
f 21/226/144 23/227/144 26/229/144
f 49/230/145 44/231/145 50/232/145
f 51/7/146 56/10/146 54/8/146
f 52/12/147 49/230/147 55/13/147
f 59/11/148 56/10/148 60/233/148
f 55/13/149 61/15/149 57/14/149
f 60/233/150 62/16/150 65/234/150
f 66/235/151 63/236/151 67/237/151
f 68/238/152 67/237/152 64/239/152
f 65/234/153 62/16/153 70/240/153
f 70/240/154 66/235/154 71/241/154
f 77/19/155 76/242/155 73/243/155
f 77/19/156 74/244/156 79/17/156
f 75/245/157 72/246/157 78/20/157
f 78/20/158 76/242/158 82/21/158
f 82/21/159 77/19/159 83/18/159
f 83/18/160 88/24/160 87/26/160
f 88/24/161 84/23/161 89/27/161
f 88/24/162 93/28/162 92/25/162
f 94/31/163 99/30/163 97/33/163
f 98/29/164 103/40/164 99/30/164
f 101/32/165 105/37/165 102/34/165
f 107/41/166 106/39/166 103/40/166
f 99/30/167 106/39/167 101/32/167
f 103/40/168 100/36/168 104/35/168
f 102/34/169 109/38/169 104/35/169
f 105/37/170 111/43/170 109/38/170
f 107/41/171 104/35/171 108/42/171
f 106/39/172 112/47/172 111/43/172
f 113/44/173 108/42/173 110/45/173
f 109/38/174 114/46/174 110/45/174
f 111/43/175 116/48/175 114/46/175
f 114/46/176 116/48/176 119/52/176
f 116/48/177 112/47/177 117/247/177
f 118/49/178 110/45/178 115/50/178
f 114/46/179 119/52/179 115/50/179
f 116/48/180 121/54/180 119/52/180
f 115/50/181 120/53/181 123/51/181
f 119/52/182 124/55/182 120/53/182
f 124/55/183 121/54/183 127/58/183
f 120/53/184 125/57/184 128/56/184
f 125/57/185 124/55/185 129/59/185
f 129/59/186 127/58/186 132/64/186
f 126/61/187 131/60/187 127/58/187
f 128/56/188 134/62/188 131/60/188
f 125/57/189 130/63/189 134/62/189
f 130/63/190 129/59/190 135/65/190
f 135/65/191 132/64/191 137/68/191
f 131/60/192 133/66/192 132/64/192
f 140/73/193 136/67/193 138/70/193
f 136/67/194 135/65/194 142/69/194
f 133/66/195 139/71/195 137/68/195
f 142/69/196 137/68/196 141/72/196
f 141/72/197 147/76/197 142/69/197
f 141/72/198 139/71/198 143/78/198
f 145/74/199 138/70/199 144/75/199
f 142/69/200 148/77/200 144/75/200
f 147/76/201 143/78/201 149/79/201
f 149/79/202 145/74/202 150/83/202
f 147/76/203 154/81/203 148/77/203
f 148/77/204 152/82/204 146/80/204
f 154/81/205 149/79/205 153/84/205
f 153/84/206 150/83/206 155/87/206
f 152/82/207 157/86/207 151/85/207
f 154/81/208 159/90/208 157/86/208
f 154/81/209 153/84/209 158/88/209
f 158/88/210 155/87/210 160/92/210
f 156/89/211 157/86/211 162/91/211
f 162/91/212 159/90/212 164/95/212
f 159/90/213 158/88/213 163/93/213
f 160/92/214 165/97/214 163/93/214
f 161/94/215 162/91/215 169/96/215
f 169/96/216 164/95/216 170/100/216
f 163/93/217 166/98/217 164/95/217
f 165/97/218 168/99/218 166/98/218
f 170/100/219 166/98/219 172/101/219
f 168/99/220 161/94/220 167/103/220
f 172/101/221 168/99/221 173/105/221
f 169/96/222 174/107/222 171/102/222
f 175/104/223 172/101/223 177/106/223
f 177/106/224 173/105/224 178/110/224
f 174/107/225 179/112/225 176/108/225
f 180/109/226 177/106/226 182/111/226
f 182/111/227 178/110/227 183/115/227
f 179/112/228 185/117/228 181/113/228
f 186/114/229 182/111/229 187/116/229
f 181/113/230 184/118/230 183/115/230
f 183/115/231 188/119/231 187/116/231
f 184/118/232 185/117/232 190/121/232
f 184/118/233 189/122/233 188/119/233
f 193/248/234 189/122/234 190/121/234
f 188/119/235 196/123/235 192/120/235
f 189/122/236 197/127/236 196/123/236
f 195/124/237 202/129/237 201/125/237
f 198/128/238 197/127/238 199/134/238
f 202/129/239 198/128/239 204/130/239
f 200/249/240 205/132/240 199/134/240
f 203/133/241 204/130/241 199/134/241
f 207/131/242 204/130/242 209/135/242
f 205/132/243 210/137/243 203/133/243
f 209/135/244 203/133/244 208/138/244
f 212/136/245 209/135/245 215/139/245
f 210/137/246 216/141/246 208/138/246
f 215/139/247 208/138/247 213/142/247
f 213/142/248 216/141/248 221/144/248
f 214/140/249 219/146/249 217/148/249
f 213/142/250 218/145/250 220/143/250
f 218/145/251 221/144/251 226/149/251
f 219/146/252 224/151/252 222/147/252
f 225/250/253 218/145/253 223/150/253
f 228/153/254 226/149/254 230/154/254
f 224/151/255 229/156/255 227/152/255
f 236/161/256 233/157/256 237/167/256
f 228/153/257 232/155/257 231/158/257
f 232/155/258 230/154/258 236/161/258
f 229/156/259 234/159/259 233/157/259
f 231/158/260 238/160/260 234/159/260
f 238/160/261 232/155/261 235/162/261
f 238/160/262 235/162/262 239/163/262
f 236/161/263 242/165/263 239/163/263
f 240/168/264 238/160/264 244/164/264
f 244/164/265 239/163/265 241/166/265
f 243/169/266 240/168/266 245/170/266
f 241/166/267 242/165/267 247/172/267
f 244/164/268 249/171/268 245/170/268
f 241/166/269 246/173/269 249/171/269
f 245/170/270 251/175/270 248/174/270
f 252/251/271 254/178/271 256/180/271
f 246/173/272 250/176/272 249/171/272
f 250/176/273 247/172/273 252/251/273
f 249/171/274 253/177/274 251/175/274
f 256/180/275 254/178/275 257/252/275
f 251/175/276 258/179/276 254/178/276
f 258/179/277 253/177/277 259/183/277
f 259/183/278 255/182/278 260/181/278
f 256/180/279 261/185/279 260/181/279
f 261/185/280 264/253/280 267/187/280
f 265/184/281 260/181/281 263/186/281
f 261/185/282 267/187/282 263/186/282
f 264/253/283 262/254/283 269/255/283
f 268/256/284 267/187/284 264/253/284
f 265/184/285 263/186/285 266/188/285
f 269/255/286 274/189/286 273/257/286
f 266/188/287 270/190/287 274/189/287
f 270/190/288 267/187/288 271/191/288
f 275/192/289 271/191/289 276/193/289
f 270/190/290 275/192/290 274/189/290
f 274/189/291 275/192/291 279/258/291
f 275/192/292 280/194/292 279/258/292
f 283/199/293 281/197/293 285/196/293
f 284/200/294 282/259/294 287/201/294
f 287/201/295 283/199/295 288/198/295
f 286/195/296 284/200/296 289/202/296
f 289/202/297 287/201/297 292/206/297
f 293/204/298 290/203/298 295/208/298
f 292/206/299 288/198/299 293/204/299
f 291/205/300 289/202/300 294/207/300
f 294/207/301 292/206/301 297/211/301
f 299/260/302 298/209/302 295/208/302
f 297/211/303 293/204/303 298/209/303
f 316/261/304 317/262/304 313/263/304 314/264/304 315/265/304
f 3/5/305 2/215/305 1/217/305 5/2/305 4/213/305
f 14/219/306 15/223/306 21/226/306 20/266/306
f 12/267/307 11/218/307 7/4/307 8/6/307
f 9/1/308 16/220/308 12/267/308 8/6/308
f 10/3/309 13/221/309 16/220/309 9/1/309
f 10/3/310 6/214/310 14/219/310 13/221/310
f 18/224/311 15/223/311 11/218/311 12/267/311
f 17/222/312 14/219/312 20/266/312 19/268/312
f 17/222/313 19/268/313 22/225/313 16/220/313
f 20/266/314 21/226/314 26/229/314 25/269/314
f 19/268/315 20/266/315 25/269/315 24/270/315
f 23/227/316 18/224/316 22/225/316
f 19/268/317 24/270/317 28/228/317 22/225/317
f 21/226/318 18/224/318 23/227/318
f 25/269/319 26/229/319 31/271/319 30/272/319
f 24/270/320 25/269/320 30/272/320 29/273/320
f 27/274/321 23/227/321 28/228/321
f 24/270/322 29/273/322 33/275/322 28/228/322
f 26/229/323 23/227/323 27/274/323
f 28/228/324 33/275/324 32/276/324 27/274/324
f 27/274/325 32/276/325 31/271/325 26/229/325
f 36/277/326 35/278/326 30/272/326 31/271/326
f 30/272/327 35/278/327 34/279/327 29/273/327
f 33/275/328 29/273/328 34/279/328 38/280/328
f 32/276/329 33/275/329 38/280/329 37/281/329
f 32/276/330 37/281/330 36/277/330 31/271/330
f 41/282/331 40/283/331 35/278/331 36/277/331
f 40/283/332 39/284/332 34/279/332 35/278/332
f 34/279/333 39/284/333 43/285/333 38/280/333
f 37/281/334 38/280/334 43/285/334 42/286/334
f 37/281/335 42/286/335 41/282/335 36/277/335
f 46/287/336 45/288/336 40/283/336 41/282/336
f 40/283/337 45/288/337 44/231/337 39/284/337
f 43/285/338 39/284/338 44/231/338 49/230/338
f 42/286/339 43/285/339 49/230/339 47/289/339
f 42/286/340 47/289/340 46/287/340 41/282/340
f 46/287/341 51/7/341 48/9/341 45/288/341
f 48/9/342 50/232/342 44/231/342 45/288/342
f 48/9/343 54/8/343 53/290/343 50/232/343
f 49/230/344 52/12/344 47/289/344
f 47/289/345 52/12/345 51/7/345 46/287/345
f 49/230/346 50/232/346 53/290/346 55/13/346
f 53/290/347 54/8/347 59/11/347 58/291/347
f 52/12/348 57/14/348 56/10/348 51/7/348
f 53/290/349 58/291/349 61/15/349 55/13/349
f 60/233/350 65/234/350 64/239/350 59/11/350
f 58/291/351 59/11/351 64/239/351 63/236/351
f 57/14/352 62/16/352 60/233/352 56/10/352
f 58/291/353 63/236/353 66/235/353 61/15/353
f 64/239/354 65/234/354 69/292/354 68/238/354
f 62/16/355 61/15/355 66/235/355
f 64/239/356 67/237/356 63/236/356
f 69/292/357 75/245/357 74/244/357 68/238/357
f 70/240/358 62/16/358 66/235/358
f 68/238/359 74/244/359 73/243/359 67/237/359
f 71/241/360 66/235/360 67/237/360
f 71/241/361 67/237/361 73/243/361 76/242/361
f 69/292/362 65/234/362 70/240/362
f 70/240/363 71/241/363 76/242/363 72/246/363
f 70/240/364 72/246/364 75/245/364 69/292/364
f 77/19/365 73/243/365 74/244/365
f 80/293/366 79/17/366 74/244/366 75/245/366
f 80/293/367 85/294/367 84/23/367 79/17/367
f 76/242/368 78/20/368 72/246/368
f 77/19/369 82/21/369 76/242/369
f 80/293/370 75/245/370 78/20/370
f 81/22/371 82/21/371 87/26/371 86/295/371
f 83/18/372 79/17/372 84/23/372
f 80/293/373 78/20/373 81/22/373
f 87/26/374 82/21/374 83/18/374
f 81/22/375 86/295/375 85/294/375 80/293/375
f 84/23/376 85/294/376 90/296/376 89/27/376
f 92/25/377 91/297/377 86/295/377 87/26/377
f 86/295/378 91/297/378 90/296/378 85/294/378
f 89/27/379 90/296/379 97/33/379 96/298/379
f 93/28/380 89/27/380 96/298/380 95/299/380
f 93/28/381 95/299/381 98/29/381 92/25/381
f 92/25/382 98/29/382 94/31/382 91/297/382
f 94/31/383 97/33/383 90/296/383 91/297/383
f 97/33/384 101/32/384 102/34/384 96/298/384
f 95/299/385 96/298/385 102/34/385 100/36/385
f 95/299/386 100/36/386 103/40/386 98/29/386
f 106/39/387 107/41/387 113/44/387 112/47/387
f 106/39/388 99/30/388 103/40/388
f 113/44/389 118/49/389 117/247/389 112/47/389
f 118/49/390 123/51/390 122/300/390 117/247/390
f 116/48/391 117/247/391 122/300/391 121/54/391
f 123/51/392 128/56/392 126/61/392 122/300/392
f 121/54/393 122/300/393 126/61/393 127/58/393
f 130/63/394 136/67/394 140/73/394 134/62/394
f 142/69/395 135/65/395 137/68/395
f 140/73/396 139/71/396 133/66/396 134/62/396
f 140/73/397 145/74/397 143/78/397 139/71/397
f 144/75/398 146/80/398 150/83/398 145/74/398
f 150/83/399 146/80/399 151/85/399 155/87/399
f 151/85/400 156/89/400 160/92/400 155/87/400
f 161/94/401 165/97/401 160/92/401 156/89/401
f 170/100/402 175/104/402 174/107/402 169/96/402
f 167/103/403 161/94/403 169/96/403
f 168/99/404 167/103/404 171/102/404 173/105/404
f 175/104/405 180/109/405 179/112/405 174/107/405
f 171/102/406 176/108/406 178/110/406 173/105/406
f 180/109/407 186/114/407 185/117/407 179/112/407
f 178/110/408 176/108/408 181/113/408 183/115/408
f 185/117/409 186/114/409 191/301/409 190/121/409
f 187/116/410 192/120/410 191/301/410 186/114/410
f 190/121/411 191/301/411 194/126/411 193/248/411
f 192/120/412 195/124/412 194/126/412 191/301/412
f 193/248/413 194/126/413 201/125/413 200/249/413
f 189/122/414 193/248/414 200/249/414 197/127/414
f 198/128/415 202/129/415 195/124/415 196/123/415
f 201/125/416 206/302/416 205/132/416 200/249/416
f 199/134/417 197/127/417 200/249/417
f 201/125/418 202/129/418 207/131/418 206/302/418
f 204/130/419 198/128/419 199/134/419
f 206/302/420 211/303/420 210/137/420 205/132/420
f 206/302/421 207/131/421 212/136/421 211/303/421
f 203/133/422 209/135/422 204/130/422
f 211/303/423 217/148/423 216/141/423 210/137/423
f 211/303/424 212/136/424 214/140/424 217/148/424
f 216/141/425 217/148/425 222/147/425 221/144/425
f 220/143/426 219/146/426 214/140/426 215/139/426
f 221/144/427 222/147/427 227/152/427 226/149/427
f 225/250/428 224/151/428 219/146/428 220/143/428
f 225/250/429 220/143/429 218/145/429
f 226/149/430 227/152/430 233/157/430 230/154/430
f 228/153/431 231/158/431 225/250/431 223/150/431
f 225/250/432 231/158/432 229/156/432 224/151/432
f 233/157/433 234/159/433 240/168/433 237/167/433
f 233/157/434 236/161/434 230/154/434
f 240/168/435 234/159/435 238/160/435
f 237/167/436 243/169/436 242/165/436 236/161/436
f 242/165/437 243/169/437 248/174/437 247/172/437
f 247/172/438 248/174/438 254/178/438 252/251/438
f 256/180/439 255/182/439 250/176/439 252/251/439
f 250/176/440 255/182/440 259/183/440 253/177/440
f 257/252/441 264/253/441 261/185/441 256/180/441
f 258/179/442 257/252/442 254/178/442
f 259/183/443 265/184/443 262/254/443 258/179/443
f 257/252/444 258/179/444 262/254/444 264/253/444
f 267/187/445 268/256/445 272/304/445 271/191/445
f 265/184/446 269/255/446 262/254/446
f 269/255/447 265/184/447 274/189/447
f 268/256/448 264/253/448 269/255/448
f 269/255/449 273/257/449 272/304/449 268/256/449
f 271/191/450 272/304/450 277/305/450 276/193/450
f 279/258/451 278/306/451 273/257/451 274/189/451
f 273/257/452 278/306/452 277/305/452 272/304/452
f 277/305/453 286/195/453 281/197/453 276/193/453
f 281/197/454 283/199/454 280/194/454 276/193/454
f 280/194/455 283/199/455 282/259/455 279/258/455
f 278/306/456 279/258/456 282/259/456 284/200/456
f 277/305/457 278/306/457 284/200/457 286/195/457
f 286/195/458 291/205/458 290/203/458 285/196/458
f 283/199/459 287/201/459 282/259/459
f 296/210/460 295/208/460 290/203/460 291/205/460
f 288/198/461 285/196/461 290/203/461
f 288/198/462 292/206/462 287/201/462
f 296/210/463 300/307/463 299/260/463 295/208/463
f 293/204/464 297/211/464 292/206/464
f 299/260/465 300/307/465 304/308/465 303/309/465
f 296/210/466 294/207/466 301/212/466
f 298/209/467 299/260/467 303/309/467 307/310/467
f 302/311/468 297/211/468 298/209/468
f 301/212/469 297/211/469 302/311/469
f 303/309/470 304/308/470 309/312/470 308/313/470
f 300/307/471 296/210/471 301/212/471
f 298/209/472 307/310/472 306/314/472 302/311/472
f 302/311/473 306/314/473 305/315/473 301/212/473
f 307/310/474 303/309/474 308/313/474 312/316/474
f 301/212/475 305/315/475 304/308/475 300/307/475
f 313/263/476 308/313/476 309/312/476 314/264/476
f 306/314/477 307/310/477 312/316/477 311/317/477
f 306/314/478 311/317/478 310/318/478 305/315/478
f 317/262/479 312/316/479 308/313/479 313/263/479
f 305/315/480 310/318/480 309/312/480 304/308/480
f 311/317/481 312/316/481 317/262/481 316/261/481
f 310/318/482 311/317/482 316/261/482 315/265/482
f 309/312/483 310/318/483 315/265/483 314/264/483
f 14/219/484 17/222/484 13/221/484
f 18/224/485 12/267/485 16/220/485
